<svg width="171" height="24" viewBox="0 0 171 24" fill="none" xmlns="http://www.w3.org/2000/svg">
<path d="M24.0635 0.299347L17.8616 23.9994H14.2645L11.9077 16.1593L9.61301 23.9994H6.01589L0 0.299347H4.09328L7.93849 15.8002L10.1712 8.19938H13.7683L16.1251 15.6805L19.8462 0.299347H24.0635Z" fill="#262626"/>
<path d="M42.7934 23.9999H38.5761L36.9016 18.6135H30.0794L28.2189 23.9401H24.0015L25.8621 18.6135H24.8078L22.451 14.6635H27.1645L31.754 0.47937H35.3511L42.7934 23.9999ZM35.6612 14.6037L33.4285 7.96046L31.1958 14.6037H35.6612Z" fill="#262626"/>
<path d="M64.8723 23.9996H60.1588L54.7011 14.9624L49.3674 23.9996H44.6539L52.4064 11.0124C51.6621 9.69576 50.4217 7.6609 48.6852 4.84801C46.9486 2.03512 46.0804 0.419201 45.9563 0.299503H50.6698L54.8871 7.18211C55.2593 6.70332 55.8794 5.62604 56.8718 3.95028C57.8641 2.27451 58.6083 1.07754 59.1045 0.239655H63.8179L57.2439 11.0124L64.8723 23.9996Z" fill="#262626"/>
<path d="M85.9588 24H81.7415L80.005 18.6735H73.2448L71.3843 24H67.167L69.0275 18.6735H67.9112L65.5544 14.7235H70.2679L74.8574 0.539307H78.4545L85.9588 24ZM78.8266 14.6038L76.5939 7.96055L74.3612 14.6038H78.8266Z" fill="#262626"/>
<path d="M109.836 16.0993C109.836 18.2539 108.968 20.0493 107.232 21.5455C105.495 23.1016 103.386 23.9395 101.092 23.9395V19.9895C102.456 19.9895 103.573 19.6304 104.565 18.7925C105.557 17.9546 105.929 17.1167 105.929 16.0395C105.929 15.441 105.681 14.9622 105.309 14.3637C104.813 13.7652 104.317 13.2864 103.697 12.6879C103.076 12.0894 102.456 11.491 101.836 10.8925C101.216 10.294 100.72 9.5758 100.223 8.73792C99.7273 7.90004 99.6033 7.06215 99.6033 6.10457C99.6033 4.42881 100.348 2.99244 101.712 1.79546C103.076 0.598487 104.813 0 106.673 0V3.95002C105.805 3.95002 105.061 4.18941 104.565 4.5485C103.945 5.0273 103.697 5.50609 103.697 6.10457C103.697 6.58336 103.945 7.18185 104.317 7.66064C104.813 8.13943 105.309 8.73792 105.929 9.21671C106.549 9.6955 107.17 10.294 107.79 10.8925C108.41 11.491 108.906 12.2091 109.402 13.047C109.65 14.1243 109.836 15.0819 109.836 16.0993Z" fill="#262626"/>
<path d="M128.38 23.8796H124.287V9.2167H118.395V23.8796H114.302V9.2167H112.689L110.333 5.26669H114.302V0.059845H118.395V5.32654H124.287V0.059845H128.38V23.8796Z" fill="#262626"/>
<path d="M155.607 12.0896C155.607 15.3214 154.367 18.1343 152.01 20.4085C149.653 22.6828 146.676 23.8798 143.389 23.8798C140.102 23.8798 137.125 22.6828 134.769 20.4085C132.412 18.0146 131.171 15.2615 131.171 12.0896C131.171 8.91757 132.412 6.16453 134.769 3.77057C137.249 1.37662 140.102 0.299347 143.389 0.299347C146.676 0.299347 149.529 1.49632 152.01 3.77057C154.367 6.10468 155.607 8.85772 155.607 12.0896ZM149.219 17.6555C150.832 16.0994 151.7 14.1843 151.7 12.0896C151.7 9.935 150.832 8.01984 149.219 6.52362C147.607 5.0274 145.622 4.12967 143.451 4.12967C141.281 4.12967 139.234 4.96755 137.683 6.52362C136.071 8.07969 135.203 9.99485 135.203 12.0896C135.203 14.1843 136.071 16.1593 137.683 17.6555C139.296 19.2116 141.281 20.0494 143.451 20.0494C145.622 20.0494 147.607 19.2116 149.219 17.6555Z" fill="#262626"/>
<path d="M170.554 9.4562C170.554 11.7305 169.809 13.7653 168.197 15.5009C166.584 17.2964 164.6 18.254 162.429 18.6131V23.9994H158.336V0.299347H160.941C163.545 0.299347 165.778 1.25693 167.701 3.05239C169.561 4.84785 170.554 6.94256 170.554 9.4562ZM166.584 9.4562C166.584 8.13953 166.212 7.06225 165.344 6.10467C164.6 5.14709 163.483 4.54861 162.243 4.18951V14.5433C163.483 14.304 164.476 13.5858 165.22 12.6282C166.212 11.8502 166.584 10.6532 166.584 9.4562Z" fill="#262626"/>
</svg>
